REM MD5 d468417f82a8d5eed6d45d3afdb53ea0
FILE "Shanghai - Great Moments (Japan).bin" BINARY
  TRACK 01 MODE2/2352
    INDEX 01 00:00:00
  TRACK 02 AUDIO
    INDEX 00 35:33:66
    INDEX 01 35:35:66
  TRACK 03 AUDIO
    INDEX 00 35:53:50
    INDEX 01 35:55:50
REM LEADOUT 38:53:40
